<svg version="1.1" id="Layer_1" xmlns="http://www.w3.org/2000/svg" xmlns:xlink="http://www.w3.org/1999/xlink" x="0px" y="0px"
	 width="100%" viewBox="0 0 492 441" enable-background="new 0 0 492 441" xml:space="preserve">
<path fill="#FFFFFF" opacity="1.000000" stroke="none" 
	d="
M493.000000,232.000000 
	C493.000000,301.978760 493.000000,371.957520 493.000000,441.968140 
	C329.071014,441.968140 165.142014,441.968140 1.106510,441.968140 
	C1.106510,295.115692 1.106510,148.231262 1.106510,1.000000 
	C96.688400,1.000000 192.377228,1.000000 288.532623,1.196639 
	C288.999207,1.393278 288.998322,1.786556 288.586517,1.879441 
	C269.939240,3.476820 257.038422,17.917421 257.393951,36.137966 
	C257.423096,37.631474 256.200012,39.875839 254.914688,40.558292 
	C238.773819,49.128563 222.554214,57.554863 206.221268,65.752014 
	C204.640518,66.545357 201.667435,66.301247 200.189438,65.293686 
	C185.502167,55.281269 166.513916,57.367126 155.524841,70.466103 
	C144.218262,83.943535 145.174866,102.904655 158.092712,115.564621 
	C160.302185,117.729988 160.435806,119.457214 159.601761,122.065155 
	C155.808640,133.925842 152.027451,145.793564 148.519760,157.740311 
	C147.489365,161.249695 146.102966,162.996521 142.142944,163.752792 
	C128.211258,166.413422 119.156265,175.020645 116.216515,188.831635 
	C113.292381,202.569229 117.642372,214.430969 129.286484,222.554749 
	C141.030823,230.748459 153.601379,230.823547 165.848724,223.355011 
	C168.508667,221.732925 170.145721,222.030853 172.500641,223.474060 
	C187.527374,232.683044 202.563385,241.881607 217.762726,250.800064 
	C220.641479,252.489212 224.219421,253.568909 227.553665,253.802277 
	C245.140427,255.033157 262.749847,255.955017 280.358704,256.838562 
	C282.850739,256.963654 284.077515,257.738586 284.992188,260.129669 
	C287.834961,267.561157 292.926147,273.222565 300.023682,276.775055 
	C302.817932,278.173645 303.771484,279.859283 303.900543,282.878326 
	C304.383545,294.177765 304.988190,305.478210 305.916534,316.747833 
	C306.132935,319.375061 307.244171,322.333099 308.890808,324.375244 
	C324.982574,344.332123 341.282349,364.121216 357.504578,383.973022 
	C360.452698,387.580750 364.050232,389.659149 368.821930,388.775970 
	C373.797455,387.855011 376.469971,384.498779 377.893158,379.850891 
	C381.735016,367.304138 385.632538,354.774445 389.887817,342.229919 
	C402.268677,340.540192 409.593872,333.529663 413.532471,322.129242 
	C420.363464,321.061462 426.745544,319.800293 433.188324,319.090515 
	C440.005646,318.339508 443.894897,314.933899 445.836334,308.326843 
	C450.473480,292.546021 455.542114,276.892456 460.312805,261.150024 
	C461.118805,258.490387 462.165070,257.264526 465.246277,256.744659 
	C477.875854,254.613876 486.657074,247.463852 491.171844,235.307159 
	C491.605499,234.139511 492.382446,233.099350 493.000000,232.000000 
M45.333065,404.289825 
	C60.279209,406.557648 73.840240,404.472778 84.283234,390.848114 
	C84.960701,395.539307 85.490028,399.204651 85.996323,402.710571 
	C92.236725,402.710571 97.988235,402.710571 103.698257,402.710571 
	C103.698257,384.022980 103.698257,365.630859 103.698257,347.352875 
	C89.179543,347.352875 74.969742,347.352875 60.691547,347.352875 
	C60.691547,353.654633 60.691547,359.597473 60.691547,365.921997 
	C67.174965,365.921997 73.444695,365.921997 79.870522,365.921997 
	C79.789848,366.968079 79.850487,367.649689 79.673035,368.262360 
	C77.080154,377.213959 70.859810,382.272461 61.928352,383.688904 
	C52.126862,385.243317 43.535118,382.407867 37.916122,373.920746 
	C29.438410,361.115723 29.461353,347.261597 34.832726,333.378113 
	C38.720654,323.328918 46.663296,318.504242 57.400856,318.525085 
	C67.581429,318.544861 74.303535,323.412506 77.414116,332.726440 
	C85.926735,332.726440 94.009277,332.726440 102.103691,332.726440 
	C101.545219,325.396088 98.409286,317.848541 93.618843,312.078247 
	C77.658394,292.853210 40.526142,291.467438 21.750706,309.396118 
	C4.765418,325.615387 -0.298459,354.426392 9.985065,376.918732 
	C16.813435,391.853882 28.084757,401.273224 45.333065,404.289825 
M185.089020,302.430908 
	C173.064713,335.827942 161.040421,369.224976 148.879135,403.002472 
	C157.088776,403.002472 164.750244,403.136475 172.397720,402.869446 
	C173.659485,402.825378 175.497208,401.264374 175.977280,399.992462 
	C177.951416,394.762054 179.504135,389.372589 181.224136,384.003357 
	C192.430618,384.003357 203.256470,384.104706 214.078003,383.933716 
	C216.863297,383.889648 217.750381,385.048981 218.445221,387.458527 
	C219.948242,392.670624 221.779846,397.787964 223.411682,402.745483 
	C232.669998,402.745483 241.414978,402.745483 250.388138,402.745483 
	C250.220581,401.820618 250.194397,401.156738 249.978973,400.561340 
	C238.053360,367.599091 226.139297,334.632538 214.063446,301.725342 
	C213.619629,300.515961 211.604034,299.167847 210.275146,299.118530 
	C203.286362,298.859222 196.277802,298.859680 189.288879,299.117035 
	C187.943619,299.166595 186.655380,300.765015 185.089020,302.430908 
M116.263824,299.871063 
	C116.263824,334.119263 116.263824,368.367462 116.263824,402.661224 
	C125.084877,402.661224 133.461411,402.661224 141.666412,402.661224 
	C141.666412,367.937286 141.666412,333.556946 141.666412,299.177704 
	C133.186768,299.177704 125.044701,299.177704 116.263824,299.871063 
z"/>
<path fill="#1C3A67" opacity="1.000000" stroke="none" 
	d="
M493.000000,231.535370 
	C492.382446,233.099350 491.605499,234.139511 491.171844,235.307159 
	C486.657074,247.463852 477.875854,254.613876 465.246277,256.744659 
	C462.165070,257.264526 461.118805,258.490387 460.312805,261.150024 
	C455.542114,276.892456 450.473480,292.546021 445.836334,308.326843 
	C443.894897,314.933899 440.005646,318.339508 433.188324,319.090515 
	C426.745544,319.800293 420.363464,321.061462 413.507324,321.708923 
	C414.369751,313.886932 412.502838,307.054657 409.437683,300.454712 
	C414.133118,299.671295 418.455658,299.194672 422.639160,298.157318 
	C424.185211,297.773987 426.192841,296.328766 426.649933,294.929932 
	C431.139984,281.189148 435.388336,267.368378 439.561188,253.526825 
	C439.917450,252.345154 439.571198,250.626251 438.884918,249.604523 
	C438.579895,249.150482 436.455963,249.494141 435.432343,250.015305 
	C428.471863,253.559189 421.746399,257.615784 414.611328,260.746063 
	C410.518799,262.541504 405.765656,263.896637 401.368713,263.744965 
	C384.077087,263.148499 366.807983,261.888855 349.532684,260.840271 
	C346.698486,260.668213 344.091309,260.622162 344.202911,264.583923 
	C354.658569,273.712524 365.056061,282.790344 375.269653,292.182068 
	C368.861755,296.537598 364.250977,301.868286 361.601013,308.863739 
	C349.781403,298.780792 338.257263,288.835968 325.593323,277.907532 
	C326.289215,289.931854 326.817230,300.471954 327.602081,310.992889 
	C327.711914,312.465485 328.889771,314.000427 329.898773,315.241943 
	C339.765289,327.381409 349.714111,339.454010 359.592651,351.583771 
	C360.399353,352.574280 360.861084,353.845764 361.483124,354.986694 
	C361.903320,354.656158 362.323547,354.325623 362.743774,353.995087 
	C364.674164,347.669586 366.604584,341.344086 368.834808,335.125061 
	C374.982513,340.309753 381.790588,342.595978 389.507996,342.238007 
	C385.632538,354.774445 381.735016,367.304138 377.893158,379.850891 
	C376.469971,384.498779 373.797455,387.855011 368.821930,388.775970 
	C364.050232,389.659149 360.452698,387.580750 357.504578,383.973022 
	C341.282349,364.121216 324.982574,344.332123 308.890808,324.375244 
	C307.244171,322.333099 306.132935,319.375061 305.916534,316.747833 
	C304.988190,305.478210 304.383545,294.177765 303.900543,282.878326 
	C303.771484,279.859283 302.817932,278.173645 300.023682,276.775055 
	C292.926147,273.222565 287.834961,267.561157 284.992188,260.129669 
	C284.077515,257.738586 282.850739,256.963654 280.358704,256.838562 
	C262.749847,255.955017 245.140427,255.033157 227.553665,253.802277 
	C224.219421,253.568909 220.641479,252.489212 217.762726,250.800064 
	C202.563385,241.881607 187.527374,232.683044 172.500641,223.474060 
	C170.145721,222.030853 168.508667,221.732925 165.848724,223.355011 
	C153.601379,230.823547 141.030823,230.748459 129.286484,222.554749 
	C117.642372,214.430969 113.292381,202.569229 116.216515,188.831635 
	C119.156265,175.020645 128.211258,166.413422 142.142944,163.752792 
	C146.102966,162.996521 147.489365,161.249695 148.519760,157.740311 
	C152.027451,145.793564 155.808640,133.925842 159.601761,122.065155 
	C160.435806,119.457214 160.302185,117.729988 158.092712,115.564621 
	C145.174866,102.904655 144.218262,83.943535 155.524841,70.466103 
	C166.513916,57.367126 185.502167,55.281269 200.189438,65.293686 
	C201.667435,66.301247 204.640518,66.545357 206.221268,65.752014 
	C222.554214,57.554863 238.773819,49.128563 254.914688,40.558292 
	C256.200012,39.875839 257.423096,37.631474 257.393951,36.137966 
	C257.038422,17.917421 269.939240,3.476820 289.026855,1.924349 
	C298.001923,1.822069 305.187286,4.334754 311.453247,9.560125 
	C318.882355,15.755497 322.321320,23.954079 323.319855,33.376625 
	C337.515991,37.769764 351.434692,42.149841 365.426025,46.284081 
	C366.699463,46.660362 368.908356,45.919205 369.890747,44.918976 
	C381.256775,33.346275 397.490417,30.807528 410.930664,38.698662 
	C424.184906,46.480583 430.238617,61.962879 425.549103,77.020416 
	C424.632904,79.962250 425.279999,81.376945 427.363342,83.329552 
	C436.693512,92.074120 445.817688,101.038460 454.677368,110.067612 
	C446.741058,112.007034 441.364594,116.817978 436.712524,122.807663 
	C428.117096,114.711472 419.878448,106.708954 411.390045,98.980713 
	C410.191650,97.889648 407.542603,97.395248 405.961609,97.890587 
	C398.404724,100.258224 390.994751,100.507820 383.398407,98.116028 
	C382.118042,97.712891 379.894958,98.298325 378.920990,99.255127 
	C372.865814,105.203499 367.171967,111.520844 361.091278,117.441582 
	C357.730560,120.713928 355.772644,123.715714 358.295837,128.534836 
	C359.468719,130.774948 360.327789,134.028595 359.604401,136.264877 
	C356.523254,145.789825 362.277466,150.141983 368.927307,154.418243 
	C362.435730,158.978317 359.482147,165.504776 356.620178,172.178864 
	C354.660187,170.905869 352.828033,169.966141 351.431305,168.585785 
	C347.790619,164.987762 344.562042,165.066437 339.705322,167.228714 
	C327.250946,172.773560 315.390350,170.603821 304.917297,161.710159 
	C303.567932,160.564285 302.325562,159.292419 301.123657,158.163498 
	C295.254974,160.289597 289.723877,162.293381 283.979279,164.374527 
	C291.756256,179.173523 299.528351,193.454346 306.758392,208.004532 
	C309.205231,212.928650 311.614258,216.115906 317.749420,215.173203 
	C320.207825,214.795471 323.054840,215.739822 325.482849,216.696777 
	C328.131714,217.740799 329.582733,216.987152 331.420532,215.056870 
	C340.462616,205.559814 349.684509,196.233948 359.108948,187.077713 
	C362.286041,194.310440 368.084686,198.383301 374.130310,202.331970 
	C365.321686,211.617554 356.649933,220.558212 348.097137,229.611206 
	C346.562988,231.235062 344.257233,232.424103 345.712189,235.842087 
	C347.085449,239.068176 349.249969,238.746704 351.689941,238.890015 
	C356.327423,239.162384 360.959351,239.532074 365.597778,239.785019 
	C373.683014,240.225952 381.771423,240.609009 390.416229,241.044418 
	C386.526917,228.007828 382.794006,215.495468 379.507629,202.974274 
	C387.333618,203.799545 393.801392,201.117935 400.217865,198.095795 
	C404.382324,211.194702 408.418518,223.941650 412.531189,236.930115 
	C416.483887,234.876724 420.090912,232.811188 423.861572,231.107986 
	C426.609833,229.866608 427.747986,228.292664 427.599518,225.090561 
	C427.448517,221.833450 427.961151,218.426010 428.831055,215.262558 
	C431.997314,203.748489 439.981750,196.723877 450.907349,192.731049 
	C451.552704,182.082413 452.186584,171.623322 453.242249,161.173065 
	C461.224304,163.410965 468.169922,161.479324 474.941467,158.502228 
	C474.526184,167.211151 474.376160,175.496948 473.499359,183.705124 
	C472.817444,190.088837 472.988190,194.895187 479.950592,198.474197 
	C487.385406,202.296036 490.198547,210.424942 493.000000,218.000000 
	C493.000000,222.356903 493.000000,226.713806 493.000000,231.535370 
M214.845001,196.815231 
	C222.040436,198.842178 228.986389,197.837646 235.833466,196.016388 
	C235.833466,207.937531 235.833466,219.858688 235.833466,231.789261 
	C238.127213,232.134155 239.253143,232.393600 240.390411,232.460526 
	C251.668152,233.124191 262.999573,233.297379 274.207977,234.563721 
	C281.266724,235.361252 286.831482,234.956940 289.577362,227.380737 
	C289.843445,226.646484 290.508850,226.056976 291.021088,225.356247 
	C281.634857,207.508179 272.307068,189.771149 262.931854,171.943985 
	C258.356018,173.437668 254.131393,174.816711 249.507294,175.612930 
	C250.420990,168.051559 248.395691,161.264450 244.789246,154.868973 
	C247.224808,153.918747 249.660385,152.968506 252.384399,151.905746 
	C247.118958,141.836136 242.125412,132.118317 236.910385,122.520821 
	C236.239319,121.285812 234.540329,120.309097 233.111206,119.836433 
	C225.547379,117.334747 217.938187,114.962006 210.291626,112.726173 
	C208.912476,112.322922 207.285583,112.766953 205.773071,112.819801 
	C206.011322,114.295227 205.894302,115.953506 206.544571,117.216858 
	C211.330185,126.514297 216.269073,135.732849 220.593521,145.493713 
	C213.106110,146.589264 206.832825,149.843948 201.837860,155.253067 
	C197.050781,146.332092 192.323608,137.377945 187.420471,128.521225 
	C186.555084,126.958038 184.954636,125.801781 183.693634,124.457603 
	C182.652191,125.947937 181.484543,127.368690 180.611679,128.951965 
	C179.983154,130.092056 179.730362,131.443451 179.339264,132.709656 
	C175.534531,145.027573 171.735962,157.347412 167.986954,169.500366 
	C169.223343,170.592377 170.339783,171.208847 170.919724,172.154373 
	C173.493454,176.350494 176.859207,176.377426 181.084915,174.871048 
	C186.235931,173.034790 191.584000,171.751266 196.966354,171.141357 
	C197.233017,178.692459 200.294022,185.102020 204.257278,191.035538 
	C197.717072,192.925522 191.142944,194.709641 184.662781,196.786957 
	C183.214157,197.251373 181.098160,198.712753 181.064560,199.771469 
	C181.017334,201.259247 182.261581,203.377426 183.591354,204.223526 
	C191.999069,209.573181 200.575150,214.658905 209.116150,219.797699 
	C210.586685,220.682449 212.155167,221.404388 213.981949,222.360397 
	C213.981949,213.384552 213.981949,205.077026 214.845001,196.815231 
M300.969604,97.520531 
	C297.729797,88.464203 294.635040,79.350616 291.105499,70.408653 
	C290.525970,68.940491 288.133179,67.654472 286.394135,67.355209 
	C285.121887,67.136269 282.941895,68.295570 282.200714,69.484993 
	C274.033813,82.591141 266.030853,95.800468 258.114807,109.060257 
	C257.376465,110.297012 256.829010,112.426888 257.389648,113.538589 
	C262.598114,123.866547 268.069092,134.062119 273.560150,144.478683 
	C279.428619,142.414917 284.860901,140.401169 290.367065,138.615158 
	C292.833099,137.815277 293.711456,136.579453 294.355591,133.884018 
	C295.605011,128.655548 296.647125,122.349236 300.151337,118.912300 
	C306.502991,112.682678 305.314240,107.103455 302.065063,100.605545 
	C301.695465,99.866409 301.465240,99.057602 300.969604,97.520531 
M361.751648,70.008812 
	C360.827942,69.224846 360.027344,68.057259 358.961792,67.715233 
	C345.854095,63.507999 332.744507,59.293945 319.522614,55.471924 
	C317.944366,55.015701 315.253418,56.419483 313.898682,57.778816 
	C312.713287,58.968243 311.795898,61.599487 312.285706,63.093662 
	C315.539093,73.017731 319.633728,82.679855 322.591583,92.682419 
	C324.792603,100.125626 327.332520,106.258148 336.506927,105.962029 
	C336.669495,105.956772 336.863464,105.970940 336.993530,106.053589 
	C339.745972,107.802345 341.405334,106.330856 343.268799,104.308678 
	C348.562622,98.563957 353.844147,92.776634 359.543243,87.447449 
	C363.419037,83.823196 365.573914,80.393280 362.653229,75.206924 
	C361.964935,73.984642 362.093842,72.302132 361.751648,70.008812 
M229.999252,78.494621 
	C224.989059,81.074074 219.947968,83.596771 214.999329,86.289330 
	C214.183029,86.733482 213.249908,87.966934 213.317642,88.754105 
	C213.387680,89.567772 214.478470,90.691200 215.351898,90.975815 
	C223.036713,93.479897 230.772720,95.826912 238.690079,98.281349 
	C245.649063,86.815338 252.430435,75.641968 259.211792,64.468605 
	C258.944153,64.253578 258.676514,64.038551 258.408844,63.823524 
	C249.156494,68.592506 239.904129,73.361481 229.999252,78.494621 
M154.286148,187.026886 
	C148.353104,184.085083 143.518906,184.732590 139.977280,188.943481 
	C136.777237,192.748245 136.656113,198.334991 139.688507,202.263229 
	C143.488754,207.186172 150.373581,207.941650 155.101471,203.954514 
	C160.302017,199.568802 160.230286,193.323364 154.286148,187.026886 
M318.531799,237.611359 
	C312.851929,236.486252 308.529388,238.080872 306.135162,242.328766 
	C303.790710,246.488312 303.962891,250.626450 306.934082,254.389465 
	C309.761932,257.970917 313.596832,259.271118 318.015717,258.083191 
	C322.406097,256.902924 325.233856,253.896301 325.875580,249.419739 
	C326.647858,244.032303 324.215698,240.152786 318.531799,237.611359 
M401.474365,75.009125 
	C405.549896,70.080284 406.236023,65.837868 403.405609,61.456570 
	C400.844666,57.492382 397.159515,55.574326 392.398132,56.546192 
	C387.953308,57.453434 384.999542,60.162487 383.941376,64.639069 
	C382.878082,69.137352 384.388947,72.904442 387.986603,75.599457 
	C392.195831,78.752579 396.613098,78.512497 401.474365,75.009125 
M171.157013,96.989845 
	C175.718491,102.909172 181.929703,104.205879 187.001556,100.297691 
	C191.255325,97.019920 192.482620,91.045990 189.840225,86.480293 
	C187.097916,81.741928 181.522186,79.817825 176.577408,81.903549 
	C170.829330,84.328117 168.766785,89.486473 171.157013,96.989845 
M465.836334,215.280685 
	C461.659454,213.131134 457.554871,213.059067 453.721802,215.982681 
	C450.429565,218.493774 449.032288,221.941864 449.689362,226.028168 
	C450.488281,230.996750 453.571167,233.979568 458.433838,234.957520 
	C463.113525,235.898651 467.739044,233.384369 469.900543,228.990189 
	C472.194366,224.327103 471.144104,220.319565 465.836334,215.280685 
M290.467102,23.996664 
	C285.601257,23.970663 281.693085,26.287907 280.587433,30.748774 
	C279.807678,33.894608 280.443451,38.022945 281.938751,40.950912 
	C284.105835,45.194263 289.774017,46.398144 294.179352,44.708408 
	C298.430908,43.077663 301.211700,38.784851 301.000488,34.178432 
	C300.757660,28.882498 297.587646,25.566772 290.467102,23.996664 
M330.466461,147.326004 
	C335.892426,144.530548 338.044342,141.125854 337.384766,136.027222 
	C336.770386,131.278030 334.063202,128.158661 329.432983,126.962814 
	C324.744904,125.752029 320.923401,127.425156 318.124084,131.222778 
	C315.531860,134.739471 315.287415,138.603790 317.499603,142.400620 
	C320.244873,147.112366 324.425751,148.771088 330.466461,147.326004 
z"/>
<path fill="#FEFEFF" opacity="1.000000" stroke="none" 
	d="
M493.000000,217.531342 
	C490.198547,210.424942 487.385406,202.296036 479.950592,198.474197 
	C472.988190,194.895187 472.817444,190.088837 473.499359,183.705124 
	C474.376160,175.496948 474.526184,167.211151 475.140625,158.225037 
	C487.225311,148.149765 490.087463,133.319366 482.153595,121.435448 
	C475.650543,111.694641 466.239807,108.628006 455.016205,109.923470 
	C445.817688,101.038460 436.693512,92.074120 427.363342,83.329552 
	C425.279999,81.376945 424.632904,79.962250 425.549103,77.020416 
	C430.238617,61.962879 424.184906,46.480583 410.930664,38.698662 
	C397.490417,30.807528 381.256775,33.346275 369.890747,44.918976 
	C368.908356,45.919205 366.699463,46.660362 365.426025,46.284081 
	C351.434692,42.149841 337.515991,37.769764 323.319855,33.376625 
	C322.321320,23.954079 318.882355,15.755497 311.453247,9.560125 
	C305.187286,4.334754 298.001923,1.822069 289.438660,1.831464 
	C288.998322,1.786556 288.999207,1.393278 288.999603,1.196639 
	C356.929291,1.000000 424.858551,1.000000 493.000000,1.000000 
	C493.000000,73.020752 493.000000,145.041718 493.000000,217.531342 
z"/>
<path fill="#1C3A67" opacity="1.000000" stroke="none" 
	d="
M44.902489,404.225891 
	C28.084757,401.273224 16.813435,391.853882 9.985065,376.918732 
	C-0.298459,354.426392 4.765418,325.615387 21.750706,309.396118 
	C40.526142,291.467438 77.658394,292.853210 93.618843,312.078247 
	C98.409286,317.848541 101.545219,325.396088 102.103691,332.726440 
	C94.009277,332.726440 85.926735,332.726440 77.414116,332.726440 
	C74.303535,323.412506 67.581429,318.544861 57.400856,318.525085 
	C46.663296,318.504242 38.720654,323.328918 34.832726,333.378113 
	C29.461353,347.261597 29.438410,361.115723 37.916122,373.920746 
	C43.535118,382.407867 52.126862,385.243317 61.928352,383.688904 
	C70.859810,382.272461 77.080154,377.213959 79.673035,368.262360 
	C79.850487,367.649689 79.789848,366.968079 79.870522,365.921997 
	C73.444695,365.921997 67.174965,365.921997 60.691547,365.921997 
	C60.691547,359.597473 60.691547,353.654633 60.691547,347.352875 
	C74.969742,347.352875 89.179543,347.352875 103.698257,347.352875 
	C103.698257,365.630859 103.698257,384.022980 103.698257,402.710571 
	C97.988235,402.710571 92.236725,402.710571 85.996323,402.710571 
	C85.490028,399.204651 84.960701,395.539307 84.283234,390.848114 
	C73.840240,404.472778 60.279209,406.557648 44.902489,404.225891 
z"/>
<path fill="#1C3A66" opacity="1.000000" stroke="none" 
	d="
M185.214935,302.039917 
	C186.655380,300.765015 187.943619,299.166595 189.288879,299.117035 
	C196.277802,298.859680 203.286362,298.859222 210.275146,299.118530 
	C211.604034,299.167847 213.619629,300.515961 214.063446,301.725342 
	C226.139297,334.632538 238.053360,367.599091 249.978973,400.561340 
	C250.194397,401.156738 250.220581,401.820618 250.388138,402.745483 
	C241.414978,402.745483 232.669998,402.745483 223.411682,402.745483 
	C221.779846,397.787964 219.948242,392.670624 218.445221,387.458527 
	C217.750381,385.048981 216.863297,383.889648 214.078003,383.933716 
	C203.256470,384.104706 192.430618,384.003357 181.224136,384.003357 
	C179.504135,389.372589 177.951416,394.762054 175.977280,399.992462 
	C175.497208,401.264374 173.659485,402.825378 172.397720,402.869446 
	C164.750244,403.136475 157.088776,403.002472 148.879135,403.002472 
	C161.040421,369.224976 173.064713,335.827942 185.214935,302.039917 
M202.410828,365.558960 
	C205.173462,365.558960 207.936096,365.558960 211.255295,365.558960 
	C207.210754,352.408112 203.376785,339.941986 199.331970,326.790283 
	C195.197830,340.015198 191.281631,352.542908 187.357391,365.096283 
	C188.334198,365.359344 188.650818,365.517181 188.968414,365.519165 
	C193.125320,365.545227 197.282333,365.549225 202.410828,365.558960 
z"/>
<path fill="#1C3A66" opacity="1.000000" stroke="none" 
	d="
M116.583237,299.524384 
	C125.044701,299.177704 133.186768,299.177704 141.666412,299.177704 
	C141.666412,333.556946 141.666412,367.937286 141.666412,402.661224 
	C133.461411,402.661224 125.084877,402.661224 116.263824,402.661224 
	C116.263824,368.367462 116.263824,334.119263 116.583237,299.524384 
z"/>
<path fill="#117DC0" opacity="1.000000" stroke="none" 
	d="
M361.896454,309.001862 
	C364.250977,301.868286 368.861755,296.537598 375.629486,292.195740 
	C389.049164,287.442871 400.025574,290.206757 409.009674,300.539093 
	C412.502838,307.054657 414.369751,313.886932 413.085114,321.758118 
	C409.593872,333.529663 402.268677,340.540192 389.887817,342.229919 
	C381.790588,342.595978 374.982513,340.309753 368.698242,334.784271 
	C361.804474,326.981262 359.644257,318.545868 361.896454,309.001862 
M375.754700,318.614746 
	C378.268372,325.839050 383.802887,329.381073 390.090179,327.789337 
	C396.255219,326.228546 400.138275,319.998474 398.957581,313.562225 
	C397.932983,307.976929 391.825348,303.471344 386.100861,304.077759 
	C379.500671,304.777008 375.053741,310.563873 375.754700,318.614746 
z"/>
<path fill="#FEFEFE" opacity="1.000000" stroke="none" 
	d="
M369.104706,154.131653 
	C362.277466,150.141983 356.523254,145.789825 359.604401,136.264877 
	C360.327789,134.028595 359.468719,130.774948 358.295837,128.534836 
	C355.772644,123.715714 357.730560,120.713928 361.091278,117.441582 
	C367.171967,111.520844 372.865814,105.203499 378.920990,99.255127 
	C379.894958,98.298325 382.118042,97.712891 383.398407,98.116028 
	C390.994751,100.507820 398.404724,100.258224 405.961609,97.890587 
	C407.542603,97.395248 410.191650,97.889648 411.390045,98.980713 
	C419.878448,106.708954 428.117096,114.711472 436.646484,123.174988 
	C435.871429,128.737335 434.885284,133.751251 433.549530,138.852203 
	C422.176636,144.664734 411.153320,150.390244 399.802460,155.972809 
	C389.720764,148.659775 379.535431,149.201492 369.104706,154.131653 
z"/>
<path fill="#FDFDFE" opacity="1.000000" stroke="none" 
	d="
M358.842926,186.847626 
	C349.684509,196.233948 340.462616,205.559814 331.420532,215.056870 
	C329.582733,216.987152 328.131714,217.740799 325.482849,216.696777 
	C323.054840,215.739822 320.207825,214.795471 317.749420,215.173203 
	C311.614258,216.115906 309.205231,212.928650 306.758392,208.004532 
	C299.528351,193.454346 291.756256,179.173523 283.979279,164.374527 
	C289.723877,162.293381 295.254974,160.289597 301.123657,158.163498 
	C302.325562,159.292419 303.567932,160.564285 304.917297,161.710159 
	C315.390350,170.603821 327.250946,172.773560 339.705322,167.228714 
	C344.562042,165.066437 347.790619,164.987762 351.431305,168.585785 
	C352.828033,169.966141 354.660187,170.905869 356.669250,172.596771 
	C357.644043,177.714005 358.243500,182.280807 358.842926,186.847626 
z"/>
<path fill="#FDFDFE" opacity="1.000000" stroke="none" 
	d="
M409.437683,300.454712 
	C400.025574,290.206757 389.049164,287.442871 375.813354,291.881775 
	C365.056061,282.790344 354.658569,273.712524 344.202911,264.583923 
	C344.091309,260.622162 346.698486,260.668213 349.532684,260.840271 
	C366.807983,261.888855 384.077087,263.148499 401.368713,263.744965 
	C405.765656,263.896637 410.518799,262.541504 414.611328,260.746063 
	C421.746399,257.615784 428.471863,253.559189 435.432343,250.015305 
	C436.455963,249.494141 438.579895,249.150482 438.884918,249.604523 
	C439.571198,250.626251 439.917450,252.345154 439.561188,253.526825 
	C435.388336,267.368378 431.139984,281.189148 426.649933,294.929932 
	C426.192841,296.328766 424.185211,297.773987 422.639160,298.157318 
	C418.455658,299.194672 414.133118,299.671295 409.437683,300.454712 
z"/>
<path fill="#FDFEFE" opacity="1.000000" stroke="none" 
	d="
M249.906754,176.195755 
	C254.131393,174.816711 258.356018,173.437668 262.931854,171.943985 
	C272.307068,189.771149 281.634857,207.508179 291.021088,225.356247 
	C290.508850,226.056976 289.843445,226.646484 289.577362,227.380737 
	C286.831482,234.956940 281.266724,235.361252 274.207977,234.563721 
	C262.999573,233.297379 251.668152,233.124191 240.390411,232.460526 
	C239.253143,232.393600 238.127213,232.134155 235.833466,231.789261 
	C235.833466,219.858688 235.833466,207.937531 236.084808,195.336975 
	C243.543808,190.476639 247.364166,183.805817 249.906754,176.195755 
z"/>
<path fill="#FDFDFE" opacity="1.000000" stroke="none" 
	d="
M452.820465,161.164246 
	C452.186584,171.623322 451.552704,182.082413 450.907349,192.731049 
	C439.981750,196.723877 431.997314,203.748489 428.831055,215.262558 
	C427.961151,218.426010 427.448517,221.833450 427.599518,225.090561 
	C427.747986,228.292664 426.609833,229.866608 423.861572,231.107986 
	C420.090912,232.811188 416.483887,234.876724 412.531189,236.930115 
	C408.418518,223.941650 404.382324,211.194702 400.420166,197.859787 
	C406.367859,191.330124 409.866943,184.335495 410.313782,175.717178 
	C422.092438,169.655029 433.551910,163.721680 445.356171,157.888336 
	C448.074097,159.046982 450.447296,160.105606 452.820465,161.164246 
z"/>
<path fill="#FDFDFE" opacity="1.000000" stroke="none" 
	d="
M301.070007,97.900818 
	C301.465240,99.057602 301.695465,99.866409 302.065063,100.605545 
	C305.314240,107.103455 306.502991,112.682678 300.151337,118.912300 
	C296.647125,122.349236 295.605011,128.655548 294.355591,133.884018 
	C293.711456,136.579453 292.833099,137.815277 290.367065,138.615158 
	C284.860901,140.401169 279.428619,142.414917 273.560150,144.478683 
	C268.069092,134.062119 262.598114,123.866547 257.389648,113.538589 
	C256.829010,112.426888 257.376465,110.297012 258.114807,109.060257 
	C266.030853,95.800468 274.033813,82.591141 282.200714,69.484993 
	C282.941895,68.295570 285.121887,67.136269 286.394135,67.355209 
	C288.133179,67.654472 290.525970,68.940491 291.105499,70.408653 
	C294.635040,79.350616 297.729797,88.464203 301.070007,97.900818 
z"/>
<path fill="#117DBF" opacity="1.000000" stroke="none" 
	d="
M249.707031,175.904343 
	C247.364166,183.805817 243.543808,190.476639 236.062592,194.874603 
	C228.986389,197.837646 222.040436,198.842178 214.190018,196.564163 
	C210.693848,194.487030 207.852676,192.660965 205.011505,190.834885 
	C200.294022,185.102020 197.233017,178.692459 197.019531,170.352036 
	C198.756287,165.001740 200.439865,160.440765 202.123444,155.879791 
	C206.832825,149.843948 213.106110,146.589264 221.280945,145.277542 
	C230.745010,145.305313 238.269211,148.316620 244.097015,155.076248 
	C248.395691,161.264450 250.420990,168.051559 249.707031,175.904343 
M229.862915,181.554825 
	C230.604462,180.886032 231.409103,180.274551 232.077393,179.539185 
	C236.581787,174.582565 236.336472,167.538101 231.531662,162.972015 
	C226.760071,158.437531 219.593613,158.633026 214.955536,163.424255 
	C210.887039,167.627090 210.314209,173.321198 213.493164,177.960251 
	C217.163422,183.316254 222.479050,184.661316 229.862915,181.554825 
z"/>
<path fill="#117DBF" opacity="1.000000" stroke="none" 
	d="
M409.994659,175.845978 
	C409.866943,184.335495 406.367859,191.330124 400.291870,197.507812 
	C393.801392,201.117935 387.333618,203.799545 379.188660,202.815445 
	C377.051392,202.452103 375.679596,202.238800 374.307831,202.025482 
	C368.084686,198.383301 362.286041,194.310440 359.108948,187.077698 
	C358.243500,182.280807 357.644043,177.714005 356.995483,172.729279 
	C359.482147,165.504776 362.435730,158.978317 368.927307,154.418243 
	C379.535431,149.201492 389.720764,148.659775 399.940826,156.262329 
	C406.254089,161.751160 409.001770,168.359314 409.994659,175.845978 
M382.710419,188.878067 
	C384.327545,188.570007 386.028564,188.484818 387.546600,187.913467 
	C392.791138,185.939545 395.675568,180.721909 395.051758,174.684265 
	C394.568542,170.006760 390.327484,165.631531 385.681671,165.017654 
	C379.612152,164.215652 374.589355,166.971710 372.362854,172.325836 
	C369.418335,179.406631 373.130707,185.785278 382.710419,188.878067 
z"/>
<path fill="#117DC0" opacity="1.000000" stroke="none" 
	d="
M453.242249,161.173065 
	C450.447296,160.105606 448.074097,159.046982 445.176178,157.619415 
	C438.855103,152.375504 435.124268,146.299103 433.899170,138.765182 
	C434.885284,133.751251 435.871429,128.737335 436.923584,123.356087 
	C441.364594,116.817978 446.741058,112.007034 454.677368,110.067627 
	C466.239807,108.628006 475.650543,111.694641 482.153595,121.435448 
	C490.087463,133.319366 487.225311,148.149765 475.092834,157.768478 
	C468.169922,161.479324 461.224304,163.410965 453.242249,161.173065 
M468.595337,144.069443 
	C473.263977,138.488449 473.209595,131.537720 468.462769,127.122459 
	C463.871277,122.851662 456.678558,122.889778 452.222687,127.208496 
	C447.240906,132.037018 446.855927,138.696136 451.269257,143.700775 
	C455.965149,149.025818 462.011536,149.350693 468.595337,144.069443 
z"/>
<path fill="#FDFDFD" opacity="1.000000" stroke="none" 
	d="
M361.799255,70.420074 
	C362.093842,72.302132 361.964935,73.984642 362.653229,75.206924 
	C365.573914,80.393280 363.419037,83.823196 359.543243,87.447449 
	C353.844147,92.776634 348.562622,98.563957 343.268799,104.308678 
	C341.405334,106.330856 339.745972,107.802345 336.993530,106.053589 
	C336.863464,105.970940 336.669495,105.956772 336.506927,105.962029 
	C327.332520,106.258148 324.792603,100.125626 322.591583,92.682419 
	C319.633728,82.679855 315.539093,73.017731 312.285706,63.093662 
	C311.795898,61.599487 312.713287,58.968243 313.898682,57.778816 
	C315.253418,56.419483 317.944366,55.015701 319.522614,55.471924 
	C332.744507,59.293945 345.854095,63.507999 358.961792,67.715233 
	C360.027344,68.057259 360.827942,69.224846 361.799255,70.420074 
z"/>
<path fill="#FCFDFD" opacity="1.000000" stroke="none" 
	d="
M361.601013,308.863739 
	C359.644257,318.545868 361.804474,326.981262 368.398407,334.677795 
	C366.604584,341.344086 364.674164,347.669586 362.743774,353.995087 
	C362.323547,354.325623 361.903320,354.656158 361.483124,354.986694 
	C360.861084,353.845764 360.399353,352.574280 359.592651,351.583771 
	C349.714111,339.454010 339.765289,327.381409 329.898773,315.241943 
	C328.889771,314.000427 327.711914,312.465485 327.602081,310.992889 
	C326.817230,300.471954 326.289215,289.931854 325.593323,277.907532 
	C338.257263,288.835968 349.781403,298.780792 361.601013,308.863739 
z"/>
<path fill="#FCFCFD" opacity="1.000000" stroke="none" 
	d="
M374.130310,202.331985 
	C375.679596,202.238800 377.051392,202.452103 378.742126,202.824249 
	C382.794006,215.495468 386.526917,228.007828 390.416229,241.044418 
	C381.771423,240.609009 373.683014,240.225952 365.597778,239.785019 
	C360.959351,239.532074 356.327423,239.162384 351.689941,238.890015 
	C349.249969,238.746704 347.085449,239.068176 345.712189,235.842087 
	C344.257233,232.424103 346.562988,231.235062 348.097137,229.611206 
	C356.649933,220.558212 365.321686,211.617554 374.130310,202.331985 
z"/>
<path fill="#FCFCFD" opacity="1.000000" stroke="none" 
	d="
M201.980652,155.566437 
	C200.439865,160.440765 198.756287,165.001740 196.959778,169.895691 
	C191.584000,171.751266 186.235931,173.034790 181.084915,174.871048 
	C176.859207,176.377426 173.493454,176.350494 170.919724,172.154373 
	C170.339783,171.208847 169.223343,170.592377 167.986954,169.500366 
	C171.735962,157.347412 175.534531,145.027573 179.339264,132.709656 
	C179.730362,131.443451 179.983154,130.092056 180.611679,128.951965 
	C181.484543,127.368690 182.652191,125.947937 183.693634,124.457603 
	C184.954636,125.801781 186.555084,126.958038 187.420471,128.521225 
	C192.323608,137.377945 197.050781,146.332092 201.980652,155.566437 
z"/>
<path fill="#FCFCFD" opacity="1.000000" stroke="none" 
	d="
M244.443130,154.972610 
	C238.269211,148.316620 230.745010,145.305313 221.564026,145.018799 
	C216.269073,135.732849 211.330185,126.514297 206.544571,117.216858 
	C205.894302,115.953506 206.011322,114.295227 205.773071,112.819809 
	C207.285583,112.766953 208.912476,112.322922 210.291626,112.726173 
	C217.938187,114.962006 225.547379,117.334747 233.111206,119.836433 
	C234.540329,120.309097 236.239319,121.285812 236.910385,122.520821 
	C242.125412,132.118317 247.118958,141.836136 252.384399,151.905746 
	C249.660385,152.968506 247.224808,153.918747 244.443130,154.972610 
z"/>
<path fill="#FAFBFC" opacity="1.000000" stroke="none" 
	d="
M230.325500,78.312538 
	C239.904129,73.361481 249.156494,68.592506 258.408844,63.823524 
	C258.676514,64.038551 258.944153,64.253578 259.211792,64.468605 
	C252.430435,75.641968 245.649063,86.815338 238.690079,98.281349 
	C230.772720,95.826912 223.036713,93.479897 215.351898,90.975815 
	C214.478470,90.691200 213.387680,89.567772 213.317642,88.754105 
	C213.249908,87.966934 214.183029,86.733482 214.999329,86.289330 
	C219.947968,83.596771 224.989059,81.074074 230.325500,78.312538 
z"/>
<path fill="#FBFCFC" opacity="1.000000" stroke="none" 
	d="
M204.634399,190.935211 
	C207.852676,192.660965 210.693848,194.487030 213.758484,196.541290 
	C213.981949,205.077026 213.981949,213.384552 213.981949,222.360397 
	C212.155167,221.404388 210.586685,220.682449 209.116150,219.797699 
	C200.575150,214.658905 191.999069,209.573181 183.591354,204.223526 
	C182.261581,203.377426 181.017334,201.259247 181.064560,199.771469 
	C181.098160,198.712753 183.214157,197.251373 184.662781,196.786957 
	C191.142944,194.709641 197.717072,192.925522 204.634399,190.935211 
z"/>
<path fill="#FBFCFC" opacity="1.000000" stroke="none" 
	d="
M154.599091,187.245331 
	C160.230286,193.323364 160.302017,199.568802 155.101471,203.954514 
	C150.373581,207.941650 143.488754,207.186172 139.688507,202.263229 
	C136.656113,198.334991 136.777237,192.748245 139.977280,188.943481 
	C143.518906,184.732590 148.353104,184.085083 154.599091,187.245331 
z"/>
<path fill="#FBFCFC" opacity="1.000000" stroke="none" 
	d="
M318.901031,237.741226 
	C324.215698,240.152786 326.647858,244.032303 325.875580,249.419739 
	C325.233856,253.896301 322.406097,256.902924 318.015717,258.083191 
	C313.596832,259.271118 309.761932,257.970917 306.934082,254.389465 
	C303.962891,250.626450 303.790710,246.488312 306.135162,242.328766 
	C308.529388,238.080872 312.851929,236.486252 318.901031,237.741226 
z"/>
<path fill="#FBFCFC" opacity="1.000000" stroke="none" 
	d="
M401.185547,75.259201 
	C396.613098,78.512497 392.195831,78.752579 387.986603,75.599457 
	C384.388947,72.904442 382.878082,69.137352 383.941376,64.639069 
	C384.999542,60.162487 387.953308,57.453434 392.398132,56.546192 
	C397.159515,55.574326 400.844666,57.492382 403.405609,61.456570 
	C406.236023,65.837868 405.549896,70.080284 401.185547,75.259201 
z"/>
<path fill="#FBFCFC" opacity="1.000000" stroke="none" 
	d="
M170.996307,96.626762 
	C168.766785,89.486473 170.829330,84.328117 176.577408,81.903549 
	C181.522186,79.817825 187.097916,81.741928 189.840225,86.480293 
	C192.482620,91.045990 191.255325,97.019920 187.001556,100.297691 
	C181.929703,104.205879 175.718491,102.909172 170.996307,96.626762 
z"/>
<path fill="#FBFCFC" opacity="1.000000" stroke="none" 
	d="
M466.138153,215.533020 
	C471.144104,220.319565 472.194366,224.327103 469.900543,228.990189 
	C467.739044,233.384369 463.113525,235.898651 458.433838,234.957520 
	C453.571167,233.979568 450.488281,230.996750 449.689362,226.028168 
	C449.032288,221.941864 450.429565,218.493774 453.721802,215.982681 
	C457.554871,213.059067 461.659454,213.131134 466.138153,215.533020 
z"/>
<path fill="#FAFBFC" opacity="1.000000" stroke="none" 
	d="
M290.869812,24.000000 
	C297.587646,25.566772 300.757660,28.882498 301.000488,34.178432 
	C301.211700,38.784851 298.430908,43.077663 294.179352,44.708408 
	C289.774017,46.398144 284.105835,45.194263 281.938751,40.950912 
	C280.443451,38.022945 279.807678,33.894608 280.587433,30.748774 
	C281.693085,26.287907 285.601257,23.970663 290.869812,24.000000 
z"/>
<path fill="#FCFCFD" opacity="1.000000" stroke="none" 
	d="
M330.101318,147.491211 
	C324.425751,148.771088 320.244873,147.112366 317.499603,142.400620 
	C315.287415,138.603790 315.531860,134.739471 318.124084,131.222778 
	C320.923401,127.425156 324.744904,125.752029 329.432983,126.962814 
	C334.063202,128.158661 336.770386,131.278030 337.384766,136.027222 
	C338.044342,141.125854 335.892426,144.530548 330.101318,147.491211 
z"/>
<path fill="#F5F6F8" opacity="1.000000" stroke="none" 
	d="
M201.925079,365.558868 
	C197.282333,365.549225 193.125320,365.545227 188.968414,365.519165 
	C188.650818,365.517181 188.334198,365.359344 187.357391,365.096283 
	C191.281631,352.542908 195.197830,340.015198 199.331970,326.790283 
	C203.376785,339.941986 207.210754,352.408112 211.255295,365.558960 
	C207.936096,365.558960 205.173462,365.558960 201.925079,365.558868 
z"/>
<path fill="#1A3A67" opacity="1.000000" stroke="none" 
	d="
M375.619690,318.253845 
	C375.053741,310.563873 379.500671,304.777008 386.100861,304.077759 
	C391.825348,303.471344 397.932983,307.976929 398.957581,313.562225 
	C400.138275,319.998474 396.255219,326.228546 390.090179,327.789337 
	C383.802887,329.381073 378.268372,325.839050 375.619690,318.253845 
z"/>
<path fill="#1D3B68" opacity="1.000000" stroke="none" 
	d="
M433.549561,138.852203 
	C435.124268,146.299103 438.855103,152.375504 444.831421,157.519409 
	C433.551910,163.721680 422.092438,169.655029 410.313782,175.717178 
	C409.001770,168.359314 406.254089,161.751160 400.268402,156.405304 
	C411.153320,150.390244 422.176636,144.664734 433.549561,138.852203 
z"/>
<path fill="#1A3A67" opacity="1.000000" stroke="none" 
	d="
M229.539001,181.746658 
	C222.479050,184.661316 217.163422,183.316254 213.493164,177.960251 
	C210.314209,173.321198 210.887039,167.627090 214.955536,163.424255 
	C219.593613,158.633026 226.760071,158.437531 231.531662,162.972015 
	C236.336472,167.538101 236.581787,174.582565 232.077393,179.539185 
	C231.409103,180.274551 230.604462,180.886032 229.539001,181.746658 
z"/>
<path fill="#1A3A67" opacity="1.000000" stroke="none" 
	d="
M382.322754,188.825592 
	C373.130707,185.785278 369.418335,179.406631 372.362854,172.325836 
	C374.589355,166.971710 379.612152,164.215652 385.681671,165.017654 
	C390.327484,165.631531 394.568542,170.006760 395.051758,174.684265 
	C395.675568,180.721909 392.791138,185.939545 387.546600,187.913467 
	C386.028564,188.484818 384.327545,188.570007 382.322754,188.825592 
z"/>
<path fill="#1A3A67" opacity="1.000000" stroke="none" 
	d="
M468.322998,144.335968 
	C462.011536,149.350693 455.965149,149.025818 451.269257,143.700775 
	C446.855927,138.696136 447.240906,132.037018 452.222687,127.208496 
	C456.678558,122.889778 463.871277,122.851662 468.462769,127.122459 
	C473.209595,131.537720 473.263977,138.488449 468.322998,144.335968 
z"/>
</svg>